<mxfile host="Electron" modified="2023-12-08T21:45:59.669Z" agent="Mozilla/5.0 (Windows NT 10.0; Win64; x64) AppleWebKit/537.36 (KHTML, like Gecko) draw.io/22.1.2 Chrome/114.0.5735.289 Electron/25.9.4 Safari/537.36" etag="ftPB5l22u4eLML67PQPl" version="22.1.2" type="device">
  <diagram name="Page-1" id="HsB3-MxjhtpIcgjnBf-B">
    <mxGraphModel dx="1418" dy="828" grid="1" gridSize="10" guides="1" tooltips="1" connect="1" arrows="1" fold="1" page="1" pageScale="1" pageWidth="827" pageHeight="1169" math="0" shadow="0">
      <root>
        <mxCell id="0" />
        <mxCell id="1" parent="0" />
        <mxCell id="n7OjTrKSsi9BWCiGIv3z-2" style="edgeStyle=orthogonalEdgeStyle;rounded=0;orthogonalLoop=1;jettySize=auto;html=1;" edge="1" parent="1" source="n7OjTrKSsi9BWCiGIv3z-1">
          <mxGeometry relative="1" as="geometry">
            <mxPoint x="160" y="160" as="targetPoint" />
          </mxGeometry>
        </mxCell>
        <mxCell id="n7OjTrKSsi9BWCiGIv3z-1" value="Start" style="rounded=1;whiteSpace=wrap;html=1;fillColor=#4D9900;fontColor=#ffffff;strokeColor=#005700;" vertex="1" parent="1">
          <mxGeometry x="100" y="40" width="120" height="60" as="geometry" />
        </mxCell>
        <mxCell id="n7OjTrKSsi9BWCiGIv3z-4" style="edgeStyle=orthogonalEdgeStyle;rounded=0;orthogonalLoop=1;jettySize=auto;html=1;" edge="1" parent="1" source="n7OjTrKSsi9BWCiGIv3z-3">
          <mxGeometry relative="1" as="geometry">
            <mxPoint x="40" y="280" as="targetPoint" />
          </mxGeometry>
        </mxCell>
        <mxCell id="n7OjTrKSsi9BWCiGIv3z-6" style="edgeStyle=orthogonalEdgeStyle;rounded=0;orthogonalLoop=1;jettySize=auto;html=1;exitX=1;exitY=0.5;exitDx=0;exitDy=0;" edge="1" parent="1" source="n7OjTrKSsi9BWCiGIv3z-3">
          <mxGeometry relative="1" as="geometry">
            <mxPoint x="280" y="280" as="targetPoint" />
          </mxGeometry>
        </mxCell>
        <mxCell id="n7OjTrKSsi9BWCiGIv3z-3" value="Height &amp;gt; 120 cm" style="rhombus;whiteSpace=wrap;html=1;" vertex="1" parent="1">
          <mxGeometry x="100" y="160" width="120" height="80" as="geometry" />
        </mxCell>
        <mxCell id="n7OjTrKSsi9BWCiGIv3z-5" value="Can&#39;t Ride" style="rounded=0;whiteSpace=wrap;html=1;" vertex="1" parent="1">
          <mxGeometry y="280" width="80" height="50" as="geometry" />
        </mxCell>
        <mxCell id="n7OjTrKSsi9BWCiGIv3z-8" style="edgeStyle=orthogonalEdgeStyle;rounded=0;orthogonalLoop=1;jettySize=auto;html=1;exitX=0.5;exitY=1;exitDx=0;exitDy=0;" edge="1" parent="1" source="n7OjTrKSsi9BWCiGIv3z-7">
          <mxGeometry relative="1" as="geometry">
            <mxPoint x="280" y="400" as="targetPoint" />
          </mxGeometry>
        </mxCell>
        <mxCell id="n7OjTrKSsi9BWCiGIv3z-7" value="Can&amp;nbsp;Ride" style="rounded=0;whiteSpace=wrap;html=1;" vertex="1" parent="1">
          <mxGeometry x="240" y="280" width="80" height="50" as="geometry" />
        </mxCell>
        <mxCell id="n7OjTrKSsi9BWCiGIv3z-10" style="edgeStyle=orthogonalEdgeStyle;rounded=0;orthogonalLoop=1;jettySize=auto;html=1;" edge="1" parent="1" source="n7OjTrKSsi9BWCiGIv3z-9">
          <mxGeometry relative="1" as="geometry">
            <mxPoint x="280" y="520" as="targetPoint" />
          </mxGeometry>
        </mxCell>
        <mxCell id="n7OjTrKSsi9BWCiGIv3z-11" style="edgeStyle=orthogonalEdgeStyle;rounded=0;orthogonalLoop=1;jettySize=auto;html=1;exitX=0;exitY=0.5;exitDx=0;exitDy=0;" edge="1" parent="1" source="n7OjTrKSsi9BWCiGIv3z-9">
          <mxGeometry relative="1" as="geometry">
            <mxPoint x="80" y="520" as="targetPoint" />
          </mxGeometry>
        </mxCell>
        <mxCell id="n7OjTrKSsi9BWCiGIv3z-12" style="edgeStyle=orthogonalEdgeStyle;rounded=0;orthogonalLoop=1;jettySize=auto;html=1;exitX=1;exitY=0.5;exitDx=0;exitDy=0;" edge="1" parent="1" source="n7OjTrKSsi9BWCiGIv3z-9">
          <mxGeometry relative="1" as="geometry">
            <mxPoint x="480" y="520" as="targetPoint" />
          </mxGeometry>
        </mxCell>
        <mxCell id="n7OjTrKSsi9BWCiGIv3z-9" value="Age" style="rhombus;whiteSpace=wrap;html=1;" vertex="1" parent="1">
          <mxGeometry x="245" y="400" width="70" height="60" as="geometry" />
        </mxCell>
        <mxCell id="n7OjTrKSsi9BWCiGIv3z-18" style="edgeStyle=orthogonalEdgeStyle;rounded=0;orthogonalLoop=1;jettySize=auto;html=1;" edge="1" parent="1" source="n7OjTrKSsi9BWCiGIv3z-14">
          <mxGeometry relative="1" as="geometry">
            <mxPoint x="280" y="720" as="targetPoint" />
          </mxGeometry>
        </mxCell>
        <mxCell id="n7OjTrKSsi9BWCiGIv3z-14" value="+$7" style="rounded=0;whiteSpace=wrap;html=1;" vertex="1" parent="1">
          <mxGeometry x="240" y="520" width="80" height="50" as="geometry" />
        </mxCell>
        <mxCell id="n7OjTrKSsi9BWCiGIv3z-21" style="edgeStyle=orthogonalEdgeStyle;rounded=0;orthogonalLoop=1;jettySize=auto;html=1;exitX=0.5;exitY=1;exitDx=0;exitDy=0;entryX=0;entryY=0;entryDx=0;entryDy=0;" edge="1" parent="1" source="n7OjTrKSsi9BWCiGIv3z-15" target="n7OjTrKSsi9BWCiGIv3z-20">
          <mxGeometry relative="1" as="geometry" />
        </mxCell>
        <mxCell id="n7OjTrKSsi9BWCiGIv3z-15" value="+$5" style="rounded=0;whiteSpace=wrap;html=1;" vertex="1" parent="1">
          <mxGeometry x="40" y="520" width="80" height="50" as="geometry" />
        </mxCell>
        <mxCell id="n7OjTrKSsi9BWCiGIv3z-22" style="edgeStyle=orthogonalEdgeStyle;rounded=0;orthogonalLoop=1;jettySize=auto;html=1;exitX=0.5;exitY=1;exitDx=0;exitDy=0;entryX=1;entryY=0;entryDx=0;entryDy=0;" edge="1" parent="1" source="n7OjTrKSsi9BWCiGIv3z-16" target="n7OjTrKSsi9BWCiGIv3z-20">
          <mxGeometry relative="1" as="geometry" />
        </mxCell>
        <mxCell id="n7OjTrKSsi9BWCiGIv3z-16" value="+$12" style="rounded=0;whiteSpace=wrap;html=1;" vertex="1" parent="1">
          <mxGeometry x="440" y="520" width="80" height="50" as="geometry" />
        </mxCell>
        <mxCell id="n7OjTrKSsi9BWCiGIv3z-26" style="edgeStyle=orthogonalEdgeStyle;rounded=0;orthogonalLoop=1;jettySize=auto;html=1;entryX=0.5;entryY=0;entryDx=0;entryDy=0;" edge="1" parent="1" source="n7OjTrKSsi9BWCiGIv3z-20" target="n7OjTrKSsi9BWCiGIv3z-25">
          <mxGeometry relative="1" as="geometry" />
        </mxCell>
        <mxCell id="n7OjTrKSsi9BWCiGIv3z-30" style="edgeStyle=orthogonalEdgeStyle;rounded=0;orthogonalLoop=1;jettySize=auto;html=1;exitX=0;exitY=0.5;exitDx=0;exitDy=0;entryX=0.25;entryY=0;entryDx=0;entryDy=0;" edge="1" parent="1" source="n7OjTrKSsi9BWCiGIv3z-20" target="n7OjTrKSsi9BWCiGIv3z-27">
          <mxGeometry relative="1" as="geometry" />
        </mxCell>
        <mxCell id="n7OjTrKSsi9BWCiGIv3z-20" value="Want Photos?" style="rhombus;whiteSpace=wrap;html=1;fillColor=default;container=0;" vertex="1" parent="1">
          <mxGeometry x="205" y="720" width="150" height="80" as="geometry" />
        </mxCell>
        <mxCell id="n7OjTrKSsi9BWCiGIv3z-23" value="" style="swimlane;startSize=0;swimlaneFillColor=none;glass=0;rounded=0;gradientColor=none;gradientDirection=radial;fillColor=default;fillStyle=auto;dashed=1;" vertex="1" parent="1">
          <mxGeometry x="80" y="700" width="400" height="330" as="geometry">
            <mxRectangle x="80" y="700" width="50" height="40" as="alternateBounds" />
          </mxGeometry>
        </mxCell>
        <mxCell id="n7OjTrKSsi9BWCiGIv3z-29" style="edgeStyle=orthogonalEdgeStyle;rounded=0;orthogonalLoop=1;jettySize=auto;html=1;exitX=0.5;exitY=1;exitDx=0;exitDy=0;entryX=0.5;entryY=0;entryDx=0;entryDy=0;" edge="1" parent="n7OjTrKSsi9BWCiGIv3z-23" source="n7OjTrKSsi9BWCiGIv3z-25" target="n7OjTrKSsi9BWCiGIv3z-27">
          <mxGeometry relative="1" as="geometry" />
        </mxCell>
        <mxCell id="n7OjTrKSsi9BWCiGIv3z-25" value="+$3" style="rounded=0;whiteSpace=wrap;html=1;" vertex="1" parent="n7OjTrKSsi9BWCiGIv3z-23">
          <mxGeometry x="310" y="110" width="80" height="30" as="geometry" />
        </mxCell>
        <mxCell id="n7OjTrKSsi9BWCiGIv3z-27" value="The Total bill is $x" style="rounded=0;whiteSpace=wrap;html=1;" vertex="1" parent="n7OjTrKSsi9BWCiGIv3z-23">
          <mxGeometry x="145" y="260" width="110" height="50" as="geometry" />
        </mxCell>
        <mxCell id="n7OjTrKSsi9BWCiGIv3z-36" value="No" style="text;html=1;align=center;verticalAlign=middle;resizable=0;points=[];autosize=1;strokeColor=none;fillColor=none;" vertex="1" parent="n7OjTrKSsi9BWCiGIv3z-23">
          <mxGeometry x="100" y="38" width="40" height="30" as="geometry" />
        </mxCell>
        <mxCell id="n7OjTrKSsi9BWCiGIv3z-37" value="Yes" style="text;html=1;align=center;verticalAlign=middle;resizable=0;points=[];autosize=1;strokeColor=none;fillColor=none;" vertex="1" parent="n7OjTrKSsi9BWCiGIv3z-23">
          <mxGeometry x="294" y="38" width="40" height="30" as="geometry" />
        </mxCell>
        <mxCell id="n7OjTrKSsi9BWCiGIv3z-31" value="No" style="text;html=1;align=center;verticalAlign=middle;resizable=0;points=[];autosize=1;strokeColor=none;fillColor=none;" vertex="1" parent="1">
          <mxGeometry x="70" y="178" width="40" height="30" as="geometry" />
        </mxCell>
        <mxCell id="n7OjTrKSsi9BWCiGIv3z-32" value="Yes" style="text;html=1;align=center;verticalAlign=middle;resizable=0;points=[];autosize=1;strokeColor=none;fillColor=none;" vertex="1" parent="1">
          <mxGeometry x="230" y="178" width="40" height="30" as="geometry" />
        </mxCell>
        <mxCell id="n7OjTrKSsi9BWCiGIv3z-33" value="18 or over" style="text;html=1;align=center;verticalAlign=middle;resizable=0;points=[];autosize=1;strokeColor=none;fillColor=none;" vertex="1" parent="1">
          <mxGeometry x="340" y="398" width="80" height="30" as="geometry" />
        </mxCell>
        <mxCell id="n7OjTrKSsi9BWCiGIv3z-34" value="Less than 12" style="text;html=1;align=center;verticalAlign=middle;resizable=0;points=[];autosize=1;strokeColor=none;fillColor=none;" vertex="1" parent="1">
          <mxGeometry x="125" y="408" width="90" height="30" as="geometry" />
        </mxCell>
        <mxCell id="n7OjTrKSsi9BWCiGIv3z-35" value="12 - 18" style="text;html=1;align=center;verticalAlign=middle;resizable=0;points=[];autosize=1;strokeColor=none;fillColor=none;" vertex="1" parent="1">
          <mxGeometry x="280" y="460" width="60" height="30" as="geometry" />
        </mxCell>
      </root>
    </mxGraphModel>
  </diagram>
</mxfile>
